<mxfile host="Electron" agent="Mozilla/5.0 (Windows NT 10.0; Win64; x64) AppleWebKit/537.36 (KHTML, like Gecko) draw.io/26.2.2 Chrome/134.0.6998.178 Electron/35.1.2 Safari/537.36" version="26.2.2">
  <diagram name="Page-1" id="5sGeGWp1Hnp2NR46aHNN">
    <mxGraphModel dx="4136" dy="2402" grid="1" gridSize="10" guides="1" tooltips="1" connect="1" arrows="1" fold="1" page="1" pageScale="1" pageWidth="850" pageHeight="1100" math="0" shadow="0">
      <root>
        <mxCell id="0" />
        <mxCell id="1" parent="0" />
        <mxCell id="1za0sbIBUVwMTmuufQd1-24" value="&lt;div style=&quot;background-color: rgb(30, 31, 34);&quot;&gt;&lt;pre style=&quot;font-family:&#39;JetBrains Mono&#39;,monospace;font-size:9.8pt;&quot;&gt;&lt;pre style=&quot;font-size: 12px;&quot;&gt;&lt;font face=&quot;JetBrains Mono, monospace&quot;&gt;&lt;span style=&quot;font-size: 13.0667px;&quot;&gt;def __init__(self, inference_input :InferenceInput)&lt;/span&gt;&lt;/font&gt;&lt;/pre&gt;&lt;/pre&gt;&lt;/div&gt;" style="text;html=1;align=center;verticalAlign=middle;resizable=0;points=[];autosize=1;strokeColor=none;fillColor=none;fontColor=default;" vertex="1" parent="1">
          <mxGeometry x="1045.01" y="70" width="390" height="60" as="geometry" />
        </mxCell>
        <mxCell id="1za0sbIBUVwMTmuufQd1-25" style="edgeStyle=orthogonalEdgeStyle;rounded=0;orthogonalLoop=1;jettySize=auto;html=1;exitX=0.5;exitY=1;exitDx=0;exitDy=0;exitPerimeter=0;entryX=0.5;entryY=0;entryDx=0;entryDy=0;fontColor=default;" edge="1" parent="1" source="1za0sbIBUVwMTmuufQd1-26" target="1za0sbIBUVwMTmuufQd1-27">
          <mxGeometry relative="1" as="geometry" />
        </mxCell>
        <mxCell id="1za0sbIBUVwMTmuufQd1-26" value="&lt;font style=&quot;font-size: 16px;&quot;&gt;begin&lt;/font&gt;" style="strokeWidth=2;html=1;shape=mxgraph.flowchart.terminator;whiteSpace=wrap;fontColor=default;" vertex="1" parent="1">
          <mxGeometry x="1182.51" y="150" width="115" height="60" as="geometry" />
        </mxCell>
        <mxCell id="1za0sbIBUVwMTmuufQd1-27" value="&lt;div style=&quot;&quot;&gt;&lt;pre style=&quot;font-family: &amp;quot;JetBrains Mono&amp;quot;, monospace;&quot;&gt;&lt;pre style=&quot;font-family: &amp;quot;JetBrains Mono&amp;quot;, monospace;&quot;&gt;&lt;pre style=&quot;font-family: &amp;quot;JetBrains Mono&amp;quot;, monospace;&quot;&gt;&lt;pre style=&quot;font-family: &amp;quot;JetBrains Mono&amp;quot;, monospace;&quot;&gt;&lt;pre style=&quot;font-family: &amp;quot;JetBrains Mono&amp;quot;, monospace;&quot;&gt;&lt;pre style=&quot;font-family: &amp;quot;JetBrains Mono&amp;quot;, monospace;&quot;&gt;&lt;pre style=&quot;font-family: &amp;quot;JetBrains Mono&amp;quot;, monospace;&quot;&gt;&lt;pre style=&quot;font-family: &amp;quot;JetBrains Mono&amp;quot;, monospace;&quot;&gt;&lt;pre style=&quot;font-family: &amp;quot;JetBrains Mono&amp;quot;, monospace;&quot;&gt;&lt;font style=&quot;&quot;&gt;self.inference_input = inference_input&lt;/font&gt;&lt;/pre&gt;&lt;/pre&gt;&lt;/pre&gt;&lt;/pre&gt;&lt;/pre&gt;&lt;/pre&gt;&lt;/pre&gt;&lt;/pre&gt;&lt;/pre&gt;&lt;/div&gt;" style="rounded=0;whiteSpace=wrap;html=1;absoluteArcSize=1;arcSize=14;strokeWidth=2;fontSize=14;labelBackgroundColor=none;fontColor=default;" vertex="1" parent="1">
          <mxGeometry x="1078.1200000000001" y="260" width="323.77" height="50" as="geometry" />
        </mxCell>
        <mxCell id="1za0sbIBUVwMTmuufQd1-34" style="edgeStyle=orthogonalEdgeStyle;rounded=0;orthogonalLoop=1;jettySize=auto;html=1;exitX=0.5;exitY=1;exitDx=0;exitDy=0;" edge="1" parent="1" source="1za0sbIBUVwMTmuufQd1-28" target="1za0sbIBUVwMTmuufQd1-33">
          <mxGeometry relative="1" as="geometry" />
        </mxCell>
        <mxCell id="1za0sbIBUVwMTmuufQd1-28" value="&lt;div style=&quot;&quot;&gt;&lt;pre style=&quot;font-family: &amp;quot;JetBrains Mono&amp;quot;, monospace;&quot;&gt;&lt;pre style=&quot;font-family: &amp;quot;JetBrains Mono&amp;quot;, monospace;&quot;&gt;&lt;pre style=&quot;font-family: &amp;quot;JetBrains Mono&amp;quot;, monospace;&quot;&gt;&lt;pre style=&quot;font-family: &amp;quot;JetBrains Mono&amp;quot;, monospace;&quot;&gt;&lt;pre style=&quot;font-family: &amp;quot;JetBrains Mono&amp;quot;, monospace;&quot;&gt;&lt;pre style=&quot;font-family: &amp;quot;JetBrains Mono&amp;quot;, monospace;&quot;&gt;&lt;pre style=&quot;font-family: &amp;quot;JetBrains Mono&amp;quot;, monospace;&quot;&gt;&lt;pre style=&quot;font-family: &amp;quot;JetBrains Mono&amp;quot;, monospace;&quot;&gt;&lt;pre style=&quot;font-family: &amp;quot;JetBrains Mono&amp;quot;, monospace;&quot;&gt;&lt;font style=&quot;&quot;&gt;self.tnorm = FuzzyConjunction.drastic_product&lt;/font&gt;&lt;/pre&gt;&lt;/pre&gt;&lt;/pre&gt;&lt;/pre&gt;&lt;/pre&gt;&lt;/pre&gt;&lt;/pre&gt;&lt;/pre&gt;&lt;/pre&gt;&lt;/div&gt;" style="rounded=0;whiteSpace=wrap;html=1;absoluteArcSize=1;arcSize=14;strokeWidth=2;fontSize=14;labelBackgroundColor=none;fontColor=default;" vertex="1" parent="1">
          <mxGeometry x="1045.01" y="350" width="390" height="50" as="geometry" />
        </mxCell>
        <mxCell id="1za0sbIBUVwMTmuufQd1-29" style="edgeStyle=orthogonalEdgeStyle;rounded=0;orthogonalLoop=1;jettySize=auto;html=1;exitX=0.5;exitY=1;exitDx=0;exitDy=0;entryX=0.506;entryY=-0.053;entryDx=0;entryDy=0;entryPerimeter=0;fontColor=default;" edge="1" parent="1" source="1za0sbIBUVwMTmuufQd1-27" target="1za0sbIBUVwMTmuufQd1-28">
          <mxGeometry relative="1" as="geometry" />
        </mxCell>
        <mxCell id="1za0sbIBUVwMTmuufQd1-30" value="&lt;font style=&quot;font-size: 16px;&quot;&gt;end&lt;/font&gt;" style="strokeWidth=2;html=1;shape=mxgraph.flowchart.terminator;whiteSpace=wrap;fontColor=default;" vertex="1" parent="1">
          <mxGeometry x="1182.51" y="610" width="115" height="60" as="geometry" />
        </mxCell>
        <mxCell id="1za0sbIBUVwMTmuufQd1-37" style="edgeStyle=orthogonalEdgeStyle;rounded=0;orthogonalLoop=1;jettySize=auto;html=1;exitX=0.5;exitY=1;exitDx=0;exitDy=0;" edge="1" parent="1" source="1za0sbIBUVwMTmuufQd1-33" target="1za0sbIBUVwMTmuufQd1-36">
          <mxGeometry relative="1" as="geometry" />
        </mxCell>
        <mxCell id="1za0sbIBUVwMTmuufQd1-33" value="&lt;div style=&quot;&quot;&gt;&lt;pre style=&quot;font-family: &amp;quot;JetBrains Mono&amp;quot;, monospace;&quot;&gt;&lt;div&gt;&lt;pre style=&quot;font-family: &amp;quot;JetBrains Mono&amp;quot;, monospace;&quot;&gt;self.implication_solver = WeberImplicationSolver()&lt;/pre&gt;&lt;/div&gt;&lt;/pre&gt;&lt;/div&gt;" style="shape=process;whiteSpace=wrap;html=1;backgroundOutline=1;size=0.02875399361022364;fontSize=14;labelBackgroundColor=none;fontColor=#FFFFFF;" vertex="1" parent="1">
          <mxGeometry x="1023.45" y="440" width="433.11" height="50" as="geometry" />
        </mxCell>
        <mxCell id="1za0sbIBUVwMTmuufQd1-38" style="edgeStyle=orthogonalEdgeStyle;rounded=0;orthogonalLoop=1;jettySize=auto;html=1;exitX=0.5;exitY=1;exitDx=0;exitDy=0;" edge="1" parent="1" source="1za0sbIBUVwMTmuufQd1-36" target="1za0sbIBUVwMTmuufQd1-30">
          <mxGeometry relative="1" as="geometry" />
        </mxCell>
        <mxCell id="1za0sbIBUVwMTmuufQd1-36" value="&lt;div style=&quot;&quot;&gt;&lt;pre style=&quot;font-family: &amp;quot;JetBrains Mono&amp;quot;, monospace;&quot;&gt;&lt;pre style=&quot;font-family: &amp;quot;JetBrains Mono&amp;quot;, monospace;&quot;&gt;&lt;pre style=&quot;font-family: &amp;quot;JetBrains Mono&amp;quot;, monospace;&quot;&gt;&lt;pre style=&quot;font-family: &amp;quot;JetBrains Mono&amp;quot;, monospace;&quot;&gt;&lt;pre style=&quot;font-family: &amp;quot;JetBrains Mono&amp;quot;, monospace;&quot;&gt;&lt;pre style=&quot;font-family: &amp;quot;JetBrains Mono&amp;quot;, monospace;&quot;&gt;&lt;pre style=&quot;font-family: &amp;quot;JetBrains Mono&amp;quot;, monospace;&quot;&gt;&lt;pre style=&quot;font-family: &amp;quot;JetBrains Mono&amp;quot;, monospace;&quot;&gt;&lt;pre style=&quot;font-family: &amp;quot;JetBrains Mono&amp;quot;, monospace;&quot;&gt;&lt;font style=&quot;&quot;&gt;self.inference_steps = []&lt;/font&gt;&lt;/pre&gt;&lt;/pre&gt;&lt;/pre&gt;&lt;/pre&gt;&lt;/pre&gt;&lt;/pre&gt;&lt;/pre&gt;&lt;/pre&gt;&lt;/pre&gt;&lt;/div&gt;" style="rounded=0;whiteSpace=wrap;html=1;absoluteArcSize=1;arcSize=14;strokeWidth=2;fontSize=14;labelBackgroundColor=none;fontColor=default;" vertex="1" parent="1">
          <mxGeometry x="1045.01" y="530" width="390" height="50" as="geometry" />
        </mxCell>
        <mxCell id="1za0sbIBUVwMTmuufQd1-39" value="&lt;div style=&quot;background-color: rgb(30, 31, 34);&quot;&gt;&lt;pre style=&quot;&quot;&gt;&lt;font face=&quot;JetBrains Mono, monospace&quot;&gt;&lt;span style=&quot;font-size: 13.0667px;&quot;&gt;def find_set_with_name(self, name :str) -&amp;gt; Optional[FuzzySet]&lt;/span&gt;&lt;span style=&quot;font-size: 9.8pt;&quot;&gt;&lt;/span&gt;&lt;/font&gt;&lt;/pre&gt;&lt;/div&gt;" style="text;html=1;align=center;verticalAlign=middle;resizable=0;points=[];autosize=1;strokeColor=none;fillColor=none;fontColor=default;" vertex="1" parent="1">
          <mxGeometry x="119.94999999999999" y="25" width="460" height="50" as="geometry" />
        </mxCell>
        <mxCell id="1za0sbIBUVwMTmuufQd1-40" style="edgeStyle=orthogonalEdgeStyle;rounded=0;orthogonalLoop=1;jettySize=auto;html=1;exitX=0.5;exitY=1;exitDx=0;exitDy=0;exitPerimeter=0;entryX=0.5;entryY=0;entryDx=0;entryDy=0;fontColor=default;" edge="1" parent="1" source="1za0sbIBUVwMTmuufQd1-41" target="1za0sbIBUVwMTmuufQd1-47">
          <mxGeometry relative="1" as="geometry" />
        </mxCell>
        <mxCell id="1za0sbIBUVwMTmuufQd1-41" value="&lt;font style=&quot;font-size: 16px;&quot;&gt;begin&lt;/font&gt;" style="strokeWidth=2;html=1;shape=mxgraph.flowchart.terminator;whiteSpace=wrap;fontColor=default;" vertex="1" parent="1">
          <mxGeometry x="309.95000000000005" y="110" width="115" height="60" as="geometry" />
        </mxCell>
        <mxCell id="1za0sbIBUVwMTmuufQd1-42" style="edgeStyle=orthogonalEdgeStyle;rounded=0;orthogonalLoop=1;jettySize=auto;html=1;exitX=1;exitY=0.5;exitDx=0;exitDy=0;exitPerimeter=0;fontColor=default;" edge="1" parent="1" source="1za0sbIBUVwMTmuufQd1-46" target="1za0sbIBUVwMTmuufQd1-55">
          <mxGeometry relative="1" as="geometry" />
        </mxCell>
        <mxCell id="1za0sbIBUVwMTmuufQd1-43" value="no" style="edgeLabel;html=1;align=center;verticalAlign=middle;resizable=0;points=[];fontColor=default;" vertex="1" connectable="0" parent="1za0sbIBUVwMTmuufQd1-42">
          <mxGeometry x="-0.4481" y="-1" relative="1" as="geometry">
            <mxPoint as="offset" />
          </mxGeometry>
        </mxCell>
        <mxCell id="1za0sbIBUVwMTmuufQd1-44" style="edgeStyle=orthogonalEdgeStyle;rounded=0;orthogonalLoop=1;jettySize=auto;html=1;exitX=0.5;exitY=1;exitDx=0;exitDy=0;exitPerimeter=0;entryX=0.5;entryY=0;entryDx=0;entryDy=0;" edge="1" parent="1" source="1za0sbIBUVwMTmuufQd1-46" target="1za0sbIBUVwMTmuufQd1-63">
          <mxGeometry relative="1" as="geometry" />
        </mxCell>
        <mxCell id="1za0sbIBUVwMTmuufQd1-45" value="yes" style="edgeLabel;html=1;align=center;verticalAlign=middle;resizable=0;points=[];" vertex="1" connectable="0" parent="1za0sbIBUVwMTmuufQd1-44">
          <mxGeometry x="-0.0286" y="1" relative="1" as="geometry">
            <mxPoint x="-1" as="offset" />
          </mxGeometry>
        </mxCell>
        <mxCell id="1za0sbIBUVwMTmuufQd1-46" value="&lt;div style=&quot;&quot;&gt;&lt;pre style=&quot;font-family: &amp;quot;JetBrains Mono&amp;quot;, monospace;&quot;&gt;&lt;font style=&quot;&quot;&gt;i &amp;lt; len(self.inference_input.sets)&lt;/font&gt;&lt;/pre&gt;&lt;/div&gt;" style="strokeWidth=2;html=1;shape=mxgraph.flowchart.decision;whiteSpace=wrap;fontSize=14;labelBackgroundColor=none;fontColor=default;" vertex="1" parent="1">
          <mxGeometry x="194.32999999999998" y="300" width="344.95" height="100" as="geometry" />
        </mxCell>
        <mxCell id="1za0sbIBUVwMTmuufQd1-47" value="&lt;div style=&quot;&quot;&gt;&lt;pre style=&quot;font-family: &amp;quot;JetBrains Mono&amp;quot;, monospace;&quot;&gt;&lt;pre style=&quot;font-family: &amp;quot;JetBrains Mono&amp;quot;, monospace;&quot;&gt;&lt;pre style=&quot;font-family: &amp;quot;JetBrains Mono&amp;quot;, monospace;&quot;&gt;&lt;pre style=&quot;font-family: &amp;quot;JetBrains Mono&amp;quot;, monospace;&quot;&gt;&lt;pre style=&quot;font-family: &amp;quot;JetBrains Mono&amp;quot;, monospace;&quot;&gt;&lt;pre style=&quot;font-family: &amp;quot;JetBrains Mono&amp;quot;, monospace;&quot;&gt;&lt;pre style=&quot;font-family: &amp;quot;JetBrains Mono&amp;quot;, monospace;&quot;&gt;&lt;pre style=&quot;font-family: &amp;quot;JetBrains Mono&amp;quot;, monospace;&quot;&gt;&lt;pre style=&quot;font-family: &amp;quot;JetBrains Mono&amp;quot;, monospace;&quot;&gt;&lt;font style=&quot;&quot;&gt;i = 0 &lt;/font&gt;&lt;/pre&gt;&lt;/pre&gt;&lt;/pre&gt;&lt;/pre&gt;&lt;/pre&gt;&lt;/pre&gt;&lt;/pre&gt;&lt;/pre&gt;&lt;/pre&gt;&lt;/div&gt;" style="rounded=0;whiteSpace=wrap;html=1;absoluteArcSize=1;arcSize=14;strokeWidth=2;fontSize=14;labelBackgroundColor=none;fontColor=default;" vertex="1" parent="1">
          <mxGeometry x="293.68" y="210" width="147.55" height="50" as="geometry" />
        </mxCell>
        <mxCell id="1za0sbIBUVwMTmuufQd1-48" style="edgeStyle=orthogonalEdgeStyle;rounded=0;orthogonalLoop=1;jettySize=auto;html=1;exitX=0.5;exitY=1;exitDx=0;exitDy=0;entryX=0.5;entryY=0;entryDx=0;entryDy=0;entryPerimeter=0;fontColor=default;" edge="1" parent="1" source="1za0sbIBUVwMTmuufQd1-47" target="1za0sbIBUVwMTmuufQd1-46">
          <mxGeometry relative="1" as="geometry" />
        </mxCell>
        <mxCell id="1za0sbIBUVwMTmuufQd1-49" style="edgeStyle=orthogonalEdgeStyle;rounded=0;orthogonalLoop=1;jettySize=auto;html=1;exitX=1;exitY=0.5;exitDx=0;exitDy=0;exitPerimeter=0;fontColor=default;" edge="1" parent="1" source="1za0sbIBUVwMTmuufQd1-53" target="1za0sbIBUVwMTmuufQd1-57">
          <mxGeometry relative="1" as="geometry" />
        </mxCell>
        <mxCell id="1za0sbIBUVwMTmuufQd1-50" value="yes" style="edgeLabel;html=1;align=center;verticalAlign=middle;resizable=0;points=[];fontColor=default;" vertex="1" connectable="0" parent="1za0sbIBUVwMTmuufQd1-49">
          <mxGeometry x="0.1818" relative="1" as="geometry">
            <mxPoint y="5" as="offset" />
          </mxGeometry>
        </mxCell>
        <mxCell id="1za0sbIBUVwMTmuufQd1-51" style="edgeStyle=orthogonalEdgeStyle;rounded=0;orthogonalLoop=1;jettySize=auto;html=1;exitX=0;exitY=0.5;exitDx=0;exitDy=0;exitPerimeter=0;fontColor=default;" edge="1" parent="1" source="1za0sbIBUVwMTmuufQd1-53" target="1za0sbIBUVwMTmuufQd1-61">
          <mxGeometry relative="1" as="geometry" />
        </mxCell>
        <mxCell id="1za0sbIBUVwMTmuufQd1-52" value="no" style="edgeLabel;html=1;align=center;verticalAlign=middle;resizable=0;points=[];fontColor=default;" vertex="1" connectable="0" parent="1za0sbIBUVwMTmuufQd1-51">
          <mxGeometry x="0.1127" y="-1" relative="1" as="geometry">
            <mxPoint as="offset" />
          </mxGeometry>
        </mxCell>
        <mxCell id="1za0sbIBUVwMTmuufQd1-53" value="&lt;div style=&quot;&quot;&gt;&lt;pre style=&quot;font-family: &amp;quot;JetBrains Mono&amp;quot;, monospace;&quot;&gt;&lt;font style=&quot;&quot;&gt;name == fuzzy_set.name&lt;/font&gt;&lt;/pre&gt;&lt;/div&gt;" style="strokeWidth=2;html=1;shape=mxgraph.flowchart.decision;whiteSpace=wrap;fontSize=14;labelBackgroundColor=none;fontColor=default;" vertex="1" parent="1">
          <mxGeometry x="214.95999999999998" y="565" width="305" height="100" as="geometry" />
        </mxCell>
        <mxCell id="1za0sbIBUVwMTmuufQd1-54" style="edgeStyle=orthogonalEdgeStyle;rounded=0;orthogonalLoop=1;jettySize=auto;html=1;exitX=0.5;exitY=1;exitDx=0;exitDy=0;fontColor=default;" edge="1" parent="1" source="1za0sbIBUVwMTmuufQd1-55" target="1za0sbIBUVwMTmuufQd1-59">
          <mxGeometry relative="1" as="geometry" />
        </mxCell>
        <mxCell id="1za0sbIBUVwMTmuufQd1-55" value="&lt;div style=&quot;&quot;&gt;&lt;pre style=&quot;font-family: &amp;quot;JetBrains Mono&amp;quot;, monospace;&quot;&gt;&lt;pre style=&quot;font-family: &amp;quot;JetBrains Mono&amp;quot;, monospace;&quot;&gt;&lt;pre style=&quot;font-family: &amp;quot;JetBrains Mono&amp;quot;, monospace;&quot;&gt;&lt;pre style=&quot;font-family: &amp;quot;JetBrains Mono&amp;quot;, monospace;&quot;&gt;&lt;pre style=&quot;font-family: &amp;quot;JetBrains Mono&amp;quot;, monospace;&quot;&gt;&lt;pre style=&quot;font-family: &amp;quot;JetBrains Mono&amp;quot;, monospace;&quot;&gt;&lt;pre style=&quot;font-family: &amp;quot;JetBrains Mono&amp;quot;, monospace;&quot;&gt;&lt;pre style=&quot;font-family: &amp;quot;JetBrains Mono&amp;quot;, monospace;&quot;&gt;&lt;pre style=&quot;font-family: &amp;quot;JetBrains Mono&amp;quot;, monospace;&quot;&gt;&lt;font style=&quot;&quot;&gt;return None&lt;/font&gt;&lt;/pre&gt;&lt;/pre&gt;&lt;/pre&gt;&lt;/pre&gt;&lt;/pre&gt;&lt;/pre&gt;&lt;/pre&gt;&lt;/pre&gt;&lt;/pre&gt;&lt;/div&gt;" style="rounded=0;whiteSpace=wrap;html=1;absoluteArcSize=1;arcSize=14;strokeWidth=2;fontSize=14;labelBackgroundColor=none;fontColor=default;" vertex="1" parent="1">
          <mxGeometry x="660" y="460" width="160" height="50" as="geometry" />
        </mxCell>
        <mxCell id="1za0sbIBUVwMTmuufQd1-56" style="edgeStyle=orthogonalEdgeStyle;rounded=0;orthogonalLoop=1;jettySize=auto;html=1;exitX=0.5;exitY=1;exitDx=0;exitDy=0;fontColor=default;" edge="1" parent="1" source="1za0sbIBUVwMTmuufQd1-57" target="1za0sbIBUVwMTmuufQd1-58">
          <mxGeometry relative="1" as="geometry" />
        </mxCell>
        <mxCell id="1za0sbIBUVwMTmuufQd1-57" value="&lt;div style=&quot;&quot;&gt;&lt;pre style=&quot;font-family: &amp;quot;JetBrains Mono&amp;quot;, monospace;&quot;&gt;&lt;pre style=&quot;font-family: &amp;quot;JetBrains Mono&amp;quot;, monospace;&quot;&gt;&lt;pre style=&quot;font-family: &amp;quot;JetBrains Mono&amp;quot;, monospace;&quot;&gt;&lt;pre style=&quot;font-family: &amp;quot;JetBrains Mono&amp;quot;, monospace;&quot;&gt;&lt;pre style=&quot;font-family: &amp;quot;JetBrains Mono&amp;quot;, monospace;&quot;&gt;&lt;pre style=&quot;font-family: &amp;quot;JetBrains Mono&amp;quot;, monospace;&quot;&gt;&lt;pre style=&quot;font-family: &amp;quot;JetBrains Mono&amp;quot;, monospace;&quot;&gt;&lt;pre style=&quot;font-family: &amp;quot;JetBrains Mono&amp;quot;, monospace;&quot;&gt;&lt;pre style=&quot;font-family: &amp;quot;JetBrains Mono&amp;quot;, monospace;&quot;&gt;&lt;font style=&quot;&quot;&gt;return fuzzy_set&lt;/font&gt;&lt;/pre&gt;&lt;/pre&gt;&lt;/pre&gt;&lt;/pre&gt;&lt;/pre&gt;&lt;/pre&gt;&lt;/pre&gt;&lt;/pre&gt;&lt;/pre&gt;&lt;/div&gt;" style="rounded=0;whiteSpace=wrap;html=1;absoluteArcSize=1;arcSize=14;strokeWidth=2;fontSize=14;labelBackgroundColor=none;fontColor=default;" vertex="1" parent="1">
          <mxGeometry x="459.95" y="680" width="160" height="50" as="geometry" />
        </mxCell>
        <mxCell id="1za0sbIBUVwMTmuufQd1-58" value="&lt;font style=&quot;font-size: 16px;&quot;&gt;end&lt;/font&gt;" style="strokeWidth=2;html=1;shape=mxgraph.flowchart.terminator;whiteSpace=wrap;fontColor=default;" vertex="1" parent="1">
          <mxGeometry x="482.45000000000005" y="770" width="115" height="60" as="geometry" />
        </mxCell>
        <mxCell id="1za0sbIBUVwMTmuufQd1-59" value="&lt;font style=&quot;font-size: 16px;&quot;&gt;end&lt;/font&gt;" style="strokeWidth=2;html=1;shape=mxgraph.flowchart.terminator;whiteSpace=wrap;fontColor=default;" vertex="1" parent="1">
          <mxGeometry x="682.5" y="580" width="115" height="60" as="geometry" />
        </mxCell>
        <mxCell id="1za0sbIBUVwMTmuufQd1-60" style="edgeStyle=orthogonalEdgeStyle;rounded=0;orthogonalLoop=1;jettySize=auto;html=1;fontColor=default;exitX=0.5;exitY=1;exitDx=0;exitDy=0;" edge="1" parent="1" source="1za0sbIBUVwMTmuufQd1-61">
          <mxGeometry relative="1" as="geometry">
            <mxPoint x="366.95" y="280" as="targetPoint" />
            <mxPoint x="196.9564516129032" y="680" as="sourcePoint" />
            <Array as="points">
              <mxPoint x="190" y="760" />
              <mxPoint x="67" y="760" />
              <mxPoint x="67" y="280" />
            </Array>
          </mxGeometry>
        </mxCell>
        <mxCell id="1za0sbIBUVwMTmuufQd1-61" value="&lt;div style=&quot;&quot;&gt;&lt;pre style=&quot;font-family: &amp;quot;JetBrains Mono&amp;quot;, monospace;&quot;&gt;&lt;pre style=&quot;font-family: &amp;quot;JetBrains Mono&amp;quot;, monospace;&quot;&gt;&lt;pre style=&quot;font-family: &amp;quot;JetBrains Mono&amp;quot;, monospace;&quot;&gt;&lt;pre style=&quot;font-family: &amp;quot;JetBrains Mono&amp;quot;, monospace;&quot;&gt;&lt;pre style=&quot;font-family: &amp;quot;JetBrains Mono&amp;quot;, monospace;&quot;&gt;&lt;pre style=&quot;font-family: &amp;quot;JetBrains Mono&amp;quot;, monospace;&quot;&gt;&lt;pre style=&quot;font-family: &amp;quot;JetBrains Mono&amp;quot;, monospace;&quot;&gt;&lt;pre style=&quot;font-family: &amp;quot;JetBrains Mono&amp;quot;, monospace;&quot;&gt;&lt;pre style=&quot;font-family: &amp;quot;JetBrains Mono&amp;quot;, monospace;&quot;&gt;&lt;font style=&quot;&quot;&gt;i += 1&lt;/font&gt;&lt;/pre&gt;&lt;/pre&gt;&lt;/pre&gt;&lt;/pre&gt;&lt;/pre&gt;&lt;/pre&gt;&lt;/pre&gt;&lt;/pre&gt;&lt;/pre&gt;&lt;/div&gt;" style="rounded=0;whiteSpace=wrap;html=1;absoluteArcSize=1;arcSize=14;strokeWidth=2;fontSize=14;labelBackgroundColor=none;fontColor=default;" vertex="1" parent="1">
          <mxGeometry x="109.95" y="680" width="160" height="50" as="geometry" />
        </mxCell>
        <mxCell id="1za0sbIBUVwMTmuufQd1-62" style="edgeStyle=orthogonalEdgeStyle;rounded=0;orthogonalLoop=1;jettySize=auto;html=1;exitX=0.5;exitY=1;exitDx=0;exitDy=0;" edge="1" parent="1" source="1za0sbIBUVwMTmuufQd1-63" target="1za0sbIBUVwMTmuufQd1-53">
          <mxGeometry relative="1" as="geometry">
            <mxPoint x="367.1034482758621" y="560" as="targetPoint" />
          </mxGeometry>
        </mxCell>
        <mxCell id="1za0sbIBUVwMTmuufQd1-63" value="&lt;div style=&quot;&quot;&gt;&lt;pre style=&quot;&quot;&gt;&lt;pre style=&quot;&quot;&gt;&lt;pre style=&quot;&quot;&gt;&lt;pre style=&quot;&quot;&gt;&lt;pre style=&quot;&quot;&gt;&lt;pre style=&quot;&quot;&gt;&lt;pre style=&quot;&quot;&gt;&lt;pre style=&quot;&quot;&gt;&lt;pre style=&quot;&quot;&gt;&lt;font style=&quot;&quot;&gt;&lt;font face=&quot;JetBrains Mono, monospace&quot;&gt;fuzzy_set &lt;/font&gt;&lt;font face=&quot;JetBrains Mono, monospace&quot; style=&quot;&quot;&gt;= &lt;/font&gt;self.inference_input.sets[i]&lt;/font&gt;&lt;font face=&quot;JetBrains Mono, monospace&quot;&gt;&lt;/font&gt;&lt;/pre&gt;&lt;/pre&gt;&lt;/pre&gt;&lt;/pre&gt;&lt;/pre&gt;&lt;/pre&gt;&lt;/pre&gt;&lt;/pre&gt;&lt;/pre&gt;&lt;/div&gt;" style="rounded=0;whiteSpace=wrap;html=1;absoluteArcSize=1;arcSize=14;strokeWidth=2;fontSize=14;labelBackgroundColor=none;fontColor=default;" vertex="1" parent="1">
          <mxGeometry x="194.33" y="460" width="346.24" height="70" as="geometry" />
        </mxCell>
        <mxCell id="1za0sbIBUVwMTmuufQd1-64" value="&lt;div style=&quot;background-color: rgb(30, 31, 34);&quot;&gt;&lt;pre style=&quot;&quot;&gt;&lt;div style=&quot;color: rgb(188, 190, 196);&quot;&gt;&lt;pre style=&quot;font-family:&#39;JetBrains Mono&#39;,monospace;font-size:9.8pt;&quot;&gt;&lt;span style=&quot;color:#cf8e6d;&quot;&gt;def &lt;/span&gt;&lt;span style=&quot;color:#56a8f5;&quot;&gt;calculate_implications&lt;/span&gt;(&lt;span style=&quot;color:#94558d;&quot;&gt;self&lt;/span&gt;)&lt;/pre&gt;&lt;/div&gt;&lt;/pre&gt;&lt;/div&gt;" style="text;html=1;align=center;verticalAlign=middle;resizable=0;points=[];autosize=1;strokeColor=none;fillColor=none;fontColor=default;" vertex="1" parent="1">
          <mxGeometry x="241.8" y="1050" width="250" height="60" as="geometry" />
        </mxCell>
        <mxCell id="1za0sbIBUVwMTmuufQd1-65" style="edgeStyle=orthogonalEdgeStyle;rounded=0;orthogonalLoop=1;jettySize=auto;html=1;exitX=0.5;exitY=1;exitDx=0;exitDy=0;exitPerimeter=0;entryX=0.5;entryY=0;entryDx=0;entryDy=0;fontColor=default;" edge="1" parent="1" source="1za0sbIBUVwMTmuufQd1-66" target="1za0sbIBUVwMTmuufQd1-72">
          <mxGeometry relative="1" as="geometry" />
        </mxCell>
        <mxCell id="1za0sbIBUVwMTmuufQd1-66" value="&lt;font style=&quot;font-size: 16px;&quot;&gt;begin&lt;/font&gt;" style="strokeWidth=2;html=1;shape=mxgraph.flowchart.terminator;whiteSpace=wrap;fontColor=default;" vertex="1" parent="1">
          <mxGeometry x="309.95000000000005" y="1125" width="115" height="60" as="geometry" />
        </mxCell>
        <mxCell id="1za0sbIBUVwMTmuufQd1-67" style="edgeStyle=orthogonalEdgeStyle;rounded=0;orthogonalLoop=1;jettySize=auto;html=1;exitX=1;exitY=0.5;exitDx=0;exitDy=0;exitPerimeter=0;fontColor=default;entryX=0.5;entryY=0;entryDx=0;entryDy=0;entryPerimeter=0;" edge="1" parent="1" source="1za0sbIBUVwMTmuufQd1-71" target="1za0sbIBUVwMTmuufQd1-84">
          <mxGeometry relative="1" as="geometry">
            <mxPoint x="740" y="1475" as="targetPoint" />
          </mxGeometry>
        </mxCell>
        <mxCell id="1za0sbIBUVwMTmuufQd1-68" value="no" style="edgeLabel;html=1;align=center;verticalAlign=middle;resizable=0;points=[];fontColor=default;" vertex="1" connectable="0" parent="1za0sbIBUVwMTmuufQd1-67">
          <mxGeometry x="-0.4481" y="-1" relative="1" as="geometry">
            <mxPoint as="offset" />
          </mxGeometry>
        </mxCell>
        <mxCell id="1za0sbIBUVwMTmuufQd1-69" style="edgeStyle=orthogonalEdgeStyle;rounded=0;orthogonalLoop=1;jettySize=auto;html=1;exitX=0.5;exitY=1;exitDx=0;exitDy=0;exitPerimeter=0;entryX=0.5;entryY=0;entryDx=0;entryDy=0;" edge="1" parent="1" source="1za0sbIBUVwMTmuufQd1-71" target="1za0sbIBUVwMTmuufQd1-88">
          <mxGeometry relative="1" as="geometry" />
        </mxCell>
        <mxCell id="1za0sbIBUVwMTmuufQd1-70" value="yes" style="edgeLabel;html=1;align=center;verticalAlign=middle;resizable=0;points=[];" vertex="1" connectable="0" parent="1za0sbIBUVwMTmuufQd1-69">
          <mxGeometry x="-0.0286" y="1" relative="1" as="geometry">
            <mxPoint x="-1" as="offset" />
          </mxGeometry>
        </mxCell>
        <mxCell id="1za0sbIBUVwMTmuufQd1-71" value="&lt;div style=&quot;&quot;&gt;&lt;pre style=&quot;font-family: &amp;quot;JetBrains Mono&amp;quot;, monospace;&quot;&gt;&lt;font style=&quot;&quot;&gt;i &amp;lt; len(self.inference_input.implications)&lt;/font&gt;&lt;/pre&gt;&lt;/div&gt;" style="strokeWidth=2;html=1;shape=mxgraph.flowchart.decision;whiteSpace=wrap;fontSize=14;labelBackgroundColor=none;fontColor=default;" vertex="1" parent="1">
          <mxGeometry x="164.99" y="1315" width="404.95" height="100" as="geometry" />
        </mxCell>
        <mxCell id="1za0sbIBUVwMTmuufQd1-72" value="&lt;div style=&quot;&quot;&gt;&lt;pre style=&quot;font-family: &amp;quot;JetBrains Mono&amp;quot;, monospace;&quot;&gt;&lt;pre style=&quot;font-family: &amp;quot;JetBrains Mono&amp;quot;, monospace;&quot;&gt;&lt;pre style=&quot;font-family: &amp;quot;JetBrains Mono&amp;quot;, monospace;&quot;&gt;&lt;pre style=&quot;font-family: &amp;quot;JetBrains Mono&amp;quot;, monospace;&quot;&gt;&lt;pre style=&quot;font-family: &amp;quot;JetBrains Mono&amp;quot;, monospace;&quot;&gt;&lt;pre style=&quot;font-family: &amp;quot;JetBrains Mono&amp;quot;, monospace;&quot;&gt;&lt;pre style=&quot;font-family: &amp;quot;JetBrains Mono&amp;quot;, monospace;&quot;&gt;&lt;pre style=&quot;font-family: &amp;quot;JetBrains Mono&amp;quot;, monospace;&quot;&gt;&lt;pre style=&quot;font-family: &amp;quot;JetBrains Mono&amp;quot;, monospace;&quot;&gt;&lt;font style=&quot;&quot;&gt;i = 0 &lt;/font&gt;&lt;/pre&gt;&lt;/pre&gt;&lt;/pre&gt;&lt;/pre&gt;&lt;/pre&gt;&lt;/pre&gt;&lt;/pre&gt;&lt;/pre&gt;&lt;/pre&gt;&lt;/div&gt;" style="rounded=0;whiteSpace=wrap;html=1;absoluteArcSize=1;arcSize=14;strokeWidth=2;fontSize=14;labelBackgroundColor=none;fontColor=default;" vertex="1" parent="1">
          <mxGeometry x="293.68" y="1225" width="147.55" height="50" as="geometry" />
        </mxCell>
        <mxCell id="1za0sbIBUVwMTmuufQd1-73" style="edgeStyle=orthogonalEdgeStyle;rounded=0;orthogonalLoop=1;jettySize=auto;html=1;exitX=0.5;exitY=1;exitDx=0;exitDy=0;entryX=0.5;entryY=0;entryDx=0;entryDy=0;entryPerimeter=0;fontColor=default;" edge="1" parent="1" source="1za0sbIBUVwMTmuufQd1-72" target="1za0sbIBUVwMTmuufQd1-71">
          <mxGeometry relative="1" as="geometry" />
        </mxCell>
        <mxCell id="1za0sbIBUVwMTmuufQd1-74" style="edgeStyle=orthogonalEdgeStyle;rounded=0;orthogonalLoop=1;jettySize=auto;html=1;exitX=1;exitY=0.5;exitDx=0;exitDy=0;exitPerimeter=0;fontColor=default;entryX=0.5;entryY=0;entryDx=0;entryDy=0;" edge="1" parent="1" source="1za0sbIBUVwMTmuufQd1-78" target="1za0sbIBUVwMTmuufQd1-96">
          <mxGeometry relative="1" as="geometry">
            <mxPoint x="540" y="1900" as="targetPoint" />
          </mxGeometry>
        </mxCell>
        <mxCell id="1za0sbIBUVwMTmuufQd1-89" value="no" style="edgeLabel;html=1;align=center;verticalAlign=middle;resizable=0;points=[];" vertex="1" connectable="0" parent="1za0sbIBUVwMTmuufQd1-74">
          <mxGeometry x="0.22" relative="1" as="geometry">
            <mxPoint as="offset" />
          </mxGeometry>
        </mxCell>
        <mxCell id="1za0sbIBUVwMTmuufQd1-76" style="edgeStyle=orthogonalEdgeStyle;rounded=0;orthogonalLoop=1;jettySize=auto;html=1;exitX=0;exitY=0.5;exitDx=0;exitDy=0;exitPerimeter=0;fontColor=default;" edge="1" parent="1" source="1za0sbIBUVwMTmuufQd1-78" target="1za0sbIBUVwMTmuufQd1-86">
          <mxGeometry relative="1" as="geometry" />
        </mxCell>
        <mxCell id="1za0sbIBUVwMTmuufQd1-77" value="yes" style="edgeLabel;html=1;align=center;verticalAlign=middle;resizable=0;points=[];fontColor=default;" vertex="1" connectable="0" parent="1za0sbIBUVwMTmuufQd1-76">
          <mxGeometry x="0.1127" y="-1" relative="1" as="geometry">
            <mxPoint as="offset" />
          </mxGeometry>
        </mxCell>
        <mxCell id="1za0sbIBUVwMTmuufQd1-78" value="&lt;div style=&quot;&quot;&gt;&lt;pre style=&quot;font-family: &amp;quot;JetBrains Mono&amp;quot;, monospace;&quot;&gt;&lt;font style=&quot;&quot;&gt;first is None or second is None&lt;/font&gt;&lt;/pre&gt;&lt;/div&gt;" style="strokeWidth=2;html=1;shape=mxgraph.flowchart.decision;whiteSpace=wrap;fontSize=14;labelBackgroundColor=none;fontColor=default;" vertex="1" parent="1">
          <mxGeometry x="214.29999999999998" y="1760" width="305" height="100" as="geometry" />
        </mxCell>
        <mxCell id="1za0sbIBUVwMTmuufQd1-84" value="&lt;font style=&quot;font-size: 16px;&quot;&gt;end&lt;/font&gt;" style="strokeWidth=2;html=1;shape=mxgraph.flowchart.terminator;whiteSpace=wrap;fontColor=default;" vertex="1" parent="1">
          <mxGeometry x="682.5" y="1480" width="115" height="60" as="geometry" />
        </mxCell>
        <mxCell id="1za0sbIBUVwMTmuufQd1-85" style="edgeStyle=orthogonalEdgeStyle;rounded=0;orthogonalLoop=1;jettySize=auto;html=1;fontColor=default;exitX=0.5;exitY=1;exitDx=0;exitDy=0;" edge="1" parent="1" source="1za0sbIBUVwMTmuufQd1-86">
          <mxGeometry relative="1" as="geometry">
            <mxPoint x="366.95" y="1295" as="targetPoint" />
            <mxPoint x="196.9564516129032" y="1695" as="sourcePoint" />
            <Array as="points">
              <mxPoint x="170" y="2040" />
              <mxPoint x="170" y="2100" />
              <mxPoint x="40" y="2100" />
              <mxPoint x="40" y="1295" />
            </Array>
          </mxGeometry>
        </mxCell>
        <mxCell id="1za0sbIBUVwMTmuufQd1-86" value="&lt;div style=&quot;&quot;&gt;&lt;pre style=&quot;font-family: &amp;quot;JetBrains Mono&amp;quot;, monospace;&quot;&gt;&lt;pre style=&quot;font-family: &amp;quot;JetBrains Mono&amp;quot;, monospace;&quot;&gt;&lt;pre style=&quot;font-family: &amp;quot;JetBrains Mono&amp;quot;, monospace;&quot;&gt;&lt;pre style=&quot;font-family: &amp;quot;JetBrains Mono&amp;quot;, monospace;&quot;&gt;&lt;pre style=&quot;font-family: &amp;quot;JetBrains Mono&amp;quot;, monospace;&quot;&gt;&lt;pre style=&quot;font-family: &amp;quot;JetBrains Mono&amp;quot;, monospace;&quot;&gt;&lt;pre style=&quot;font-family: &amp;quot;JetBrains Mono&amp;quot;, monospace;&quot;&gt;&lt;pre style=&quot;font-family: &amp;quot;JetBrains Mono&amp;quot;, monospace;&quot;&gt;&lt;pre style=&quot;font-family: &amp;quot;JetBrains Mono&amp;quot;, monospace;&quot;&gt;&lt;font style=&quot;&quot;&gt;implication.solution = None&lt;/font&gt;&lt;/pre&gt;&lt;/pre&gt;&lt;/pre&gt;&lt;/pre&gt;&lt;/pre&gt;&lt;/pre&gt;&lt;/pre&gt;&lt;/pre&gt;&lt;/pre&gt;&lt;/div&gt;" style="rounded=0;whiteSpace=wrap;html=1;absoluteArcSize=1;arcSize=14;strokeWidth=2;fontSize=14;labelBackgroundColor=none;fontColor=default;" vertex="1" parent="1">
          <mxGeometry x="60" y="1990" width="240" height="50" as="geometry" />
        </mxCell>
        <mxCell id="1za0sbIBUVwMTmuufQd1-92" style="edgeStyle=orthogonalEdgeStyle;rounded=0;orthogonalLoop=1;jettySize=auto;html=1;exitX=0.5;exitY=1;exitDx=0;exitDy=0;" edge="1" parent="1" source="1za0sbIBUVwMTmuufQd1-88" target="1za0sbIBUVwMTmuufQd1-90">
          <mxGeometry relative="1" as="geometry" />
        </mxCell>
        <mxCell id="1za0sbIBUVwMTmuufQd1-88" value="&lt;div style=&quot;&quot;&gt;&lt;pre style=&quot;&quot;&gt;&lt;pre style=&quot;&quot;&gt;&lt;pre style=&quot;&quot;&gt;&lt;pre style=&quot;&quot;&gt;&lt;pre style=&quot;&quot;&gt;&lt;pre style=&quot;&quot;&gt;&lt;pre style=&quot;&quot;&gt;&lt;pre style=&quot;&quot;&gt;&lt;pre style=&quot;&quot;&gt;&lt;font style=&quot;&quot;&gt;&lt;font face=&quot;JetBrains Mono, monospace&quot;&gt;implication &lt;/font&gt;&lt;font face=&quot;JetBrains Mono, monospace&quot; style=&quot;&quot;&gt;= &lt;/font&gt;self.inference_input.implications[i]&lt;/font&gt;&lt;font face=&quot;JetBrains Mono, monospace&quot;&gt;&lt;/font&gt;&lt;/pre&gt;&lt;/pre&gt;&lt;/pre&gt;&lt;/pre&gt;&lt;/pre&gt;&lt;/pre&gt;&lt;/pre&gt;&lt;/pre&gt;&lt;/pre&gt;&lt;/div&gt;" style="rounded=0;whiteSpace=wrap;html=1;absoluteArcSize=1;arcSize=14;strokeWidth=2;fontSize=14;labelBackgroundColor=none;fontColor=default;" vertex="1" parent="1">
          <mxGeometry x="146.52" y="1455" width="440.57" height="70" as="geometry" />
        </mxCell>
        <mxCell id="1za0sbIBUVwMTmuufQd1-93" style="edgeStyle=orthogonalEdgeStyle;rounded=0;orthogonalLoop=1;jettySize=auto;html=1;exitX=0.5;exitY=1;exitDx=0;exitDy=0;entryX=0.5;entryY=0;entryDx=0;entryDy=0;" edge="1" parent="1" source="1za0sbIBUVwMTmuufQd1-90" target="1za0sbIBUVwMTmuufQd1-91">
          <mxGeometry relative="1" as="geometry" />
        </mxCell>
        <mxCell id="1za0sbIBUVwMTmuufQd1-90" value="&lt;div style=&quot;&quot;&gt;&lt;pre style=&quot;font-family: &amp;quot;JetBrains Mono&amp;quot;, monospace;&quot;&gt;&lt;div&gt;&lt;pre style=&quot;font-family: &amp;quot;JetBrains Mono&amp;quot;, monospace;&quot;&gt;first = self.find_set_with_name(implication.first)&lt;/pre&gt;&lt;/div&gt;&lt;/pre&gt;&lt;/div&gt;" style="shape=process;whiteSpace=wrap;html=1;backgroundOutline=1;size=0.02875399361022364;fontSize=14;labelBackgroundColor=none;fontColor=#FFFFFF;" vertex="1" parent="1">
          <mxGeometry x="150.25" y="1560" width="433.11" height="50" as="geometry" />
        </mxCell>
        <mxCell id="1za0sbIBUVwMTmuufQd1-91" value="&lt;div style=&quot;&quot;&gt;&lt;pre style=&quot;font-family: &amp;quot;JetBrains Mono&amp;quot;, monospace;&quot;&gt;&lt;div&gt;&lt;pre style=&quot;font-family: &amp;quot;JetBrains Mono&amp;quot;, monospace;&quot;&gt;second = self.find_set_with_name(implication.second)&lt;/pre&gt;&lt;/div&gt;&lt;/pre&gt;&lt;/div&gt;" style="shape=process;whiteSpace=wrap;html=1;backgroundOutline=1;size=0.02875399361022364;fontSize=14;labelBackgroundColor=none;fontColor=#FFFFFF;" vertex="1" parent="1">
          <mxGeometry x="150.25" y="1650" width="433.11" height="50" as="geometry" />
        </mxCell>
        <mxCell id="1za0sbIBUVwMTmuufQd1-94" style="edgeStyle=orthogonalEdgeStyle;rounded=0;orthogonalLoop=1;jettySize=auto;html=1;exitX=0.5;exitY=1;exitDx=0;exitDy=0;entryX=0.5;entryY=0;entryDx=0;entryDy=0;entryPerimeter=0;" edge="1" parent="1" source="1za0sbIBUVwMTmuufQd1-91" target="1za0sbIBUVwMTmuufQd1-78">
          <mxGeometry relative="1" as="geometry" />
        </mxCell>
        <mxCell id="1za0sbIBUVwMTmuufQd1-100" style="edgeStyle=orthogonalEdgeStyle;rounded=0;orthogonalLoop=1;jettySize=auto;html=1;exitX=0.5;exitY=1;exitDx=0;exitDy=0;entryX=0.5;entryY=0;entryDx=0;entryDy=0;" edge="1" parent="1" source="1za0sbIBUVwMTmuufQd1-96" target="1za0sbIBUVwMTmuufQd1-97">
          <mxGeometry relative="1" as="geometry" />
        </mxCell>
        <mxCell id="1za0sbIBUVwMTmuufQd1-96" value="&lt;div style=&quot;&quot;&gt;&lt;pre style=&quot;font-family: &amp;quot;JetBrains Mono&amp;quot;, monospace;&quot;&gt;&lt;div&gt;&lt;pre style=&quot;font-family: &amp;quot;JetBrains Mono&amp;quot;, monospace;&quot;&gt;second = self.find_set_with_name(implication.second)&lt;/pre&gt;&lt;/div&gt;&lt;/pre&gt;&lt;/div&gt;" style="shape=process;whiteSpace=wrap;html=1;backgroundOutline=1;size=0.02875399361022364;fontSize=14;labelBackgroundColor=none;fontColor=#FFFFFF;" vertex="1" parent="1">
          <mxGeometry x="330" y="1910" width="433.11" height="50" as="geometry" />
        </mxCell>
        <mxCell id="1za0sbIBUVwMTmuufQd1-101" style="edgeStyle=orthogonalEdgeStyle;rounded=0;orthogonalLoop=1;jettySize=auto;html=1;exitX=0.5;exitY=1;exitDx=0;exitDy=0;entryX=0.5;entryY=0;entryDx=0;entryDy=0;" edge="1" parent="1" source="1za0sbIBUVwMTmuufQd1-97" target="1za0sbIBUVwMTmuufQd1-98">
          <mxGeometry relative="1" as="geometry" />
        </mxCell>
        <mxCell id="1za0sbIBUVwMTmuufQd1-97" value="&lt;div style=&quot;&quot;&gt;&lt;pre style=&quot;font-family: &amp;quot;JetBrains Mono&amp;quot;, monospace;&quot;&gt;&lt;pre style=&quot;font-family: &amp;quot;JetBrains Mono&amp;quot;, monospace;&quot;&gt;&lt;pre style=&quot;font-family: &amp;quot;JetBrains Mono&amp;quot;, monospace;&quot;&gt;&lt;pre style=&quot;font-family: &amp;quot;JetBrains Mono&amp;quot;, monospace;&quot;&gt;&lt;pre style=&quot;font-family: &amp;quot;JetBrains Mono&amp;quot;, monospace;&quot;&gt;&lt;pre style=&quot;font-family: &amp;quot;JetBrains Mono&amp;quot;, monospace;&quot;&gt;&lt;pre style=&quot;font-family: &amp;quot;JetBrains Mono&amp;quot;, monospace;&quot;&gt;&lt;pre style=&quot;font-family: &amp;quot;JetBrains Mono&amp;quot;, monospace;&quot;&gt;&lt;pre style=&quot;font-family: &amp;quot;JetBrains Mono&amp;quot;, monospace;&quot;&gt;&lt;font style=&quot;&quot;&gt;implication.first_set = first&lt;/font&gt;&lt;/pre&gt;&lt;/pre&gt;&lt;/pre&gt;&lt;/pre&gt;&lt;/pre&gt;&lt;/pre&gt;&lt;/pre&gt;&lt;/pre&gt;&lt;/pre&gt;&lt;/div&gt;" style="rounded=0;whiteSpace=wrap;html=1;absoluteArcSize=1;arcSize=14;strokeWidth=2;fontSize=14;labelBackgroundColor=none;fontColor=default;" vertex="1" parent="1">
          <mxGeometry x="426.55" y="1990" width="240" height="50" as="geometry" />
        </mxCell>
        <mxCell id="1za0sbIBUVwMTmuufQd1-102" style="edgeStyle=orthogonalEdgeStyle;rounded=0;orthogonalLoop=1;jettySize=auto;html=1;exitX=0.5;exitY=1;exitDx=0;exitDy=0;" edge="1" parent="1" source="1za0sbIBUVwMTmuufQd1-98">
          <mxGeometry relative="1" as="geometry">
            <mxPoint x="368" y="1290" as="targetPoint" />
            <mxPoint x="544.55" y="2120" as="sourcePoint" />
            <Array as="points">
              <mxPoint x="545" y="2140" />
              <mxPoint x="830" y="2140" />
              <mxPoint x="830" y="1290" />
            </Array>
          </mxGeometry>
        </mxCell>
        <mxCell id="1za0sbIBUVwMTmuufQd1-98" value="&lt;div style=&quot;&quot;&gt;&lt;pre style=&quot;font-family: &amp;quot;JetBrains Mono&amp;quot;, monospace;&quot;&gt;&lt;pre style=&quot;font-family: &amp;quot;JetBrains Mono&amp;quot;, monospace;&quot;&gt;&lt;pre style=&quot;font-family: &amp;quot;JetBrains Mono&amp;quot;, monospace;&quot;&gt;&lt;pre style=&quot;font-family: &amp;quot;JetBrains Mono&amp;quot;, monospace;&quot;&gt;&lt;pre style=&quot;font-family: &amp;quot;JetBrains Mono&amp;quot;, monospace;&quot;&gt;&lt;pre style=&quot;font-family: &amp;quot;JetBrains Mono&amp;quot;, monospace;&quot;&gt;&lt;pre style=&quot;font-family: &amp;quot;JetBrains Mono&amp;quot;, monospace;&quot;&gt;&lt;pre style=&quot;font-family: &amp;quot;JetBrains Mono&amp;quot;, monospace;&quot;&gt;&lt;pre style=&quot;font-family: &amp;quot;JetBrains Mono&amp;quot;, monospace;&quot;&gt;&lt;font style=&quot;&quot;&gt;implication.second_set = second&lt;/font&gt;&lt;/pre&gt;&lt;/pre&gt;&lt;/pre&gt;&lt;/pre&gt;&lt;/pre&gt;&lt;/pre&gt;&lt;/pre&gt;&lt;/pre&gt;&lt;/pre&gt;&lt;/div&gt;" style="rounded=0;whiteSpace=wrap;html=1;absoluteArcSize=1;arcSize=14;strokeWidth=2;fontSize=14;labelBackgroundColor=none;fontColor=default;" vertex="1" parent="1">
          <mxGeometry x="414.83" y="2070" width="263.45" height="50" as="geometry" />
        </mxCell>
        <mxCell id="1za0sbIBUVwMTmuufQd1-103" value="&lt;div style=&quot;background-color: rgb(30, 31, 34);&quot;&gt;&lt;pre style=&quot;&quot;&gt;&lt;div style=&quot;color: rgb(188, 190, 196);&quot;&gt;&lt;pre style=&quot;&quot;&gt;&lt;font face=&quot;JetBrains Mono, monospace&quot; color=&quot;#cf8e6d&quot;&gt;&lt;span style=&quot;font-size: 13.0667px;&quot;&gt;def find_compatible_sets(self, implication_scheme :ImplicationScheme)&lt;/span&gt;&lt;/font&gt;&lt;font face=&quot;JetBrains Mono, monospace&quot; color=&quot;#bcbec4&quot;&gt;&lt;span style=&quot;font-size: 9.8pt;&quot;&gt;&lt;/span&gt;&lt;/font&gt;&lt;/pre&gt;&lt;/div&gt;&lt;/pre&gt;&lt;/div&gt;" style="text;html=1;align=center;verticalAlign=middle;resizable=0;points=[];autosize=1;strokeColor=none;fillColor=none;fontColor=default;" vertex="1" parent="1">
          <mxGeometry x="1270.78" y="1040" width="520" height="50" as="geometry" />
        </mxCell>
        <mxCell id="1za0sbIBUVwMTmuufQd1-106" style="edgeStyle=orthogonalEdgeStyle;rounded=0;orthogonalLoop=1;jettySize=auto;html=1;exitX=0.5;exitY=1;exitDx=0;exitDy=0;exitPerimeter=0;" edge="1" parent="1" source="1za0sbIBUVwMTmuufQd1-104" target="1za0sbIBUVwMTmuufQd1-105">
          <mxGeometry relative="1" as="geometry" />
        </mxCell>
        <mxCell id="1za0sbIBUVwMTmuufQd1-104" value="&lt;font style=&quot;font-size: 16px;&quot;&gt;begin&lt;/font&gt;" style="strokeWidth=2;html=1;shape=mxgraph.flowchart.terminator;whiteSpace=wrap;fontColor=default;" vertex="1" parent="1">
          <mxGeometry x="1473.28" y="1120" width="115" height="60" as="geometry" />
        </mxCell>
        <mxCell id="1za0sbIBUVwMTmuufQd1-105" value="&lt;div style=&quot;&quot;&gt;&lt;pre style=&quot;font-family: &amp;quot;JetBrains Mono&amp;quot;, monospace;&quot;&gt;&lt;div&gt;&lt;pre style=&quot;font-family: &amp;quot;JetBrains Mono&amp;quot;, monospace;&quot;&gt;first_set = self.find_set_with_name(implication_scheme.first)&lt;/pre&gt;&lt;/div&gt;&lt;/pre&gt;&lt;/div&gt;" style="shape=process;whiteSpace=wrap;html=1;backgroundOutline=1;size=0.02875399361022364;fontSize=14;labelBackgroundColor=none;fontColor=#FFFFFF;" vertex="1" parent="1">
          <mxGeometry x="1280" y="1230" width="501.57" height="50" as="geometry" />
        </mxCell>
        <mxCell id="1za0sbIBUVwMTmuufQd1-110" style="edgeStyle=orthogonalEdgeStyle;rounded=0;orthogonalLoop=1;jettySize=auto;html=1;exitX=1;exitY=0.5;exitDx=0;exitDy=0;exitPerimeter=0;entryX=0.5;entryY=0;entryDx=0;entryDy=0;" edge="1" parent="1" source="1za0sbIBUVwMTmuufQd1-107" target="1za0sbIBUVwMTmuufQd1-109">
          <mxGeometry relative="1" as="geometry" />
        </mxCell>
        <mxCell id="1za0sbIBUVwMTmuufQd1-111" value="yes" style="edgeLabel;html=1;align=center;verticalAlign=middle;resizable=0;points=[];" vertex="1" connectable="0" parent="1za0sbIBUVwMTmuufQd1-110">
          <mxGeometry x="0.1696" relative="1" as="geometry">
            <mxPoint as="offset" />
          </mxGeometry>
        </mxCell>
        <mxCell id="1za0sbIBUVwMTmuufQd1-132" style="edgeStyle=orthogonalEdgeStyle;rounded=0;orthogonalLoop=1;jettySize=auto;html=1;exitX=0;exitY=0.5;exitDx=0;exitDy=0;exitPerimeter=0;entryX=0.5;entryY=0;entryDx=0;entryDy=0;" edge="1" parent="1" source="1za0sbIBUVwMTmuufQd1-107" target="1za0sbIBUVwMTmuufQd1-134">
          <mxGeometry relative="1" as="geometry">
            <mxPoint x="1362" y="1440" as="targetPoint" />
          </mxGeometry>
        </mxCell>
        <mxCell id="1za0sbIBUVwMTmuufQd1-133" value="no" style="edgeLabel;html=1;align=center;verticalAlign=middle;resizable=0;points=[];" vertex="1" connectable="0" parent="1za0sbIBUVwMTmuufQd1-132">
          <mxGeometry x="-0.4149" y="1" relative="1" as="geometry">
            <mxPoint as="offset" />
          </mxGeometry>
        </mxCell>
        <mxCell id="1za0sbIBUVwMTmuufQd1-107" value="&lt;div style=&quot;&quot;&gt;&lt;pre style=&quot;font-family: &amp;quot;JetBrains Mono&amp;quot;, monospace;&quot;&gt;&lt;font style=&quot;&quot;&gt;first_set is None&lt;/font&gt;&lt;/pre&gt;&lt;/div&gt;" style="strokeWidth=2;html=1;shape=mxgraph.flowchart.decision;whiteSpace=wrap;fontSize=14;labelBackgroundColor=none;fontColor=default;" vertex="1" parent="1">
          <mxGeometry x="1382.03" y="1320" width="297.49" height="100" as="geometry" />
        </mxCell>
        <mxCell id="1za0sbIBUVwMTmuufQd1-108" style="edgeStyle=orthogonalEdgeStyle;rounded=0;orthogonalLoop=1;jettySize=auto;html=1;exitX=0.5;exitY=1;exitDx=0;exitDy=0;entryX=0.5;entryY=0;entryDx=0;entryDy=0;entryPerimeter=0;" edge="1" parent="1" source="1za0sbIBUVwMTmuufQd1-105" target="1za0sbIBUVwMTmuufQd1-107">
          <mxGeometry relative="1" as="geometry" />
        </mxCell>
        <mxCell id="1za0sbIBUVwMTmuufQd1-113" style="edgeStyle=orthogonalEdgeStyle;rounded=0;orthogonalLoop=1;jettySize=auto;html=1;exitX=0.5;exitY=1;exitDx=0;exitDy=0;" edge="1" parent="1" source="1za0sbIBUVwMTmuufQd1-109" target="1za0sbIBUVwMTmuufQd1-112">
          <mxGeometry relative="1" as="geometry" />
        </mxCell>
        <mxCell id="1za0sbIBUVwMTmuufQd1-109" value="&lt;div style=&quot;&quot;&gt;&lt;pre style=&quot;font-family: &amp;quot;JetBrains Mono&amp;quot;, monospace;&quot;&gt;&lt;pre style=&quot;font-family: &amp;quot;JetBrains Mono&amp;quot;, monospace;&quot;&gt;&lt;pre style=&quot;font-family: &amp;quot;JetBrains Mono&amp;quot;, monospace;&quot;&gt;&lt;pre style=&quot;font-family: &amp;quot;JetBrains Mono&amp;quot;, monospace;&quot;&gt;&lt;pre style=&quot;font-family: &amp;quot;JetBrains Mono&amp;quot;, monospace;&quot;&gt;&lt;pre style=&quot;font-family: &amp;quot;JetBrains Mono&amp;quot;, monospace;&quot;&gt;&lt;pre style=&quot;font-family: &amp;quot;JetBrains Mono&amp;quot;, monospace;&quot;&gt;&lt;pre style=&quot;font-family: &amp;quot;JetBrains Mono&amp;quot;, monospace;&quot;&gt;&lt;pre style=&quot;font-family: &amp;quot;JetBrains Mono&amp;quot;, monospace;&quot;&gt;&lt;font style=&quot;&quot;&gt;return []&lt;/font&gt;&lt;/pre&gt;&lt;/pre&gt;&lt;/pre&gt;&lt;/pre&gt;&lt;/pre&gt;&lt;/pre&gt;&lt;/pre&gt;&lt;/pre&gt;&lt;/pre&gt;&lt;/div&gt;" style="rounded=0;whiteSpace=wrap;html=1;absoluteArcSize=1;arcSize=14;strokeWidth=2;fontSize=14;labelBackgroundColor=none;fontColor=default;" vertex="1" parent="1">
          <mxGeometry x="1655.77" y="1450" width="160" height="50" as="geometry" />
        </mxCell>
        <mxCell id="1za0sbIBUVwMTmuufQd1-112" value="&lt;font style=&quot;font-size: 16px;&quot;&gt;end&lt;/font&gt;" style="strokeWidth=2;html=1;shape=mxgraph.flowchart.terminator;whiteSpace=wrap;fontColor=default;" vertex="1" parent="1">
          <mxGeometry x="1678.27" y="1540" width="115" height="60" as="geometry" />
        </mxCell>
        <mxCell id="1za0sbIBUVwMTmuufQd1-115" style="edgeStyle=orthogonalEdgeStyle;rounded=0;orthogonalLoop=1;jettySize=auto;html=1;exitX=0.5;exitY=1;exitDx=0;exitDy=0;exitPerimeter=0;entryX=0.5;entryY=0;entryDx=0;entryDy=0;" edge="1" parent="1" source="1za0sbIBUVwMTmuufQd1-117" target="1za0sbIBUVwMTmuufQd1-131">
          <mxGeometry relative="1" as="geometry" />
        </mxCell>
        <mxCell id="1za0sbIBUVwMTmuufQd1-116" value="yes" style="edgeLabel;html=1;align=center;verticalAlign=middle;resizable=0;points=[];" vertex="1" connectable="0" parent="1za0sbIBUVwMTmuufQd1-115">
          <mxGeometry x="-0.0286" y="1" relative="1" as="geometry">
            <mxPoint x="-1" as="offset" />
          </mxGeometry>
        </mxCell>
        <mxCell id="1za0sbIBUVwMTmuufQd1-137" style="edgeStyle=orthogonalEdgeStyle;rounded=0;orthogonalLoop=1;jettySize=auto;html=1;exitX=1;exitY=0.5;exitDx=0;exitDy=0;exitPerimeter=0;" edge="1" parent="1" source="1za0sbIBUVwMTmuufQd1-117" target="1za0sbIBUVwMTmuufQd1-136">
          <mxGeometry relative="1" as="geometry" />
        </mxCell>
        <mxCell id="1za0sbIBUVwMTmuufQd1-138" value="no" style="edgeLabel;html=1;align=center;verticalAlign=middle;resizable=0;points=[];" vertex="1" connectable="0" parent="1za0sbIBUVwMTmuufQd1-137">
          <mxGeometry x="-0.2463" y="-1" relative="1" as="geometry">
            <mxPoint as="offset" />
          </mxGeometry>
        </mxCell>
        <mxCell id="1za0sbIBUVwMTmuufQd1-117" value="&lt;div style=&quot;&quot;&gt;&lt;pre style=&quot;font-family: &amp;quot;JetBrains Mono&amp;quot;, monospace;&quot;&gt;&lt;font style=&quot;&quot;&gt;i &amp;lt; len(self.inference_input.sets)&lt;/font&gt;&lt;/pre&gt;&lt;/div&gt;" style="strokeWidth=2;html=1;shape=mxgraph.flowchart.decision;whiteSpace=wrap;fontSize=14;labelBackgroundColor=none;fontColor=default;" vertex="1" parent="1">
          <mxGeometry x="1187.33" y="1605" width="344.95" height="100" as="geometry" />
        </mxCell>
        <mxCell id="1za0sbIBUVwMTmuufQd1-118" value="&lt;div style=&quot;&quot;&gt;&lt;pre style=&quot;font-family: &amp;quot;JetBrains Mono&amp;quot;, monospace;&quot;&gt;&lt;pre style=&quot;font-family: &amp;quot;JetBrains Mono&amp;quot;, monospace;&quot;&gt;&lt;pre style=&quot;font-family: &amp;quot;JetBrains Mono&amp;quot;, monospace;&quot;&gt;&lt;pre style=&quot;font-family: &amp;quot;JetBrains Mono&amp;quot;, monospace;&quot;&gt;&lt;pre style=&quot;font-family: &amp;quot;JetBrains Mono&amp;quot;, monospace;&quot;&gt;&lt;pre style=&quot;font-family: &amp;quot;JetBrains Mono&amp;quot;, monospace;&quot;&gt;&lt;pre style=&quot;font-family: &amp;quot;JetBrains Mono&amp;quot;, monospace;&quot;&gt;&lt;pre style=&quot;font-family: &amp;quot;JetBrains Mono&amp;quot;, monospace;&quot;&gt;&lt;pre style=&quot;font-family: &amp;quot;JetBrains Mono&amp;quot;, monospace;&quot;&gt;&lt;font style=&quot;&quot;&gt;i = 0 &lt;/font&gt;&lt;/pre&gt;&lt;/pre&gt;&lt;/pre&gt;&lt;/pre&gt;&lt;/pre&gt;&lt;/pre&gt;&lt;/pre&gt;&lt;/pre&gt;&lt;/pre&gt;&lt;/div&gt;" style="rounded=0;whiteSpace=wrap;html=1;absoluteArcSize=1;arcSize=14;strokeWidth=2;fontSize=14;labelBackgroundColor=none;fontColor=default;" vertex="1" parent="1">
          <mxGeometry x="1286.68" y="1510" width="147.55" height="50" as="geometry" />
        </mxCell>
        <mxCell id="1za0sbIBUVwMTmuufQd1-119" style="edgeStyle=orthogonalEdgeStyle;rounded=0;orthogonalLoop=1;jettySize=auto;html=1;exitX=0.5;exitY=1;exitDx=0;exitDy=0;entryX=0.5;entryY=0;entryDx=0;entryDy=0;entryPerimeter=0;fontColor=default;" edge="1" parent="1" source="1za0sbIBUVwMTmuufQd1-118" target="1za0sbIBUVwMTmuufQd1-117">
          <mxGeometry relative="1" as="geometry" />
        </mxCell>
        <mxCell id="1za0sbIBUVwMTmuufQd1-120" style="edgeStyle=orthogonalEdgeStyle;rounded=0;orthogonalLoop=1;jettySize=auto;html=1;exitX=1;exitY=0.5;exitDx=0;exitDy=0;exitPerimeter=0;fontColor=default;" edge="1" parent="1" source="1za0sbIBUVwMTmuufQd1-124" target="1za0sbIBUVwMTmuufQd1-126">
          <mxGeometry relative="1" as="geometry" />
        </mxCell>
        <mxCell id="1za0sbIBUVwMTmuufQd1-121" value="yes" style="edgeLabel;html=1;align=center;verticalAlign=middle;resizable=0;points=[];fontColor=default;" vertex="1" connectable="0" parent="1za0sbIBUVwMTmuufQd1-120">
          <mxGeometry x="0.1818" relative="1" as="geometry">
            <mxPoint y="5" as="offset" />
          </mxGeometry>
        </mxCell>
        <mxCell id="1za0sbIBUVwMTmuufQd1-122" style="edgeStyle=orthogonalEdgeStyle;rounded=0;orthogonalLoop=1;jettySize=auto;html=1;exitX=0;exitY=0.5;exitDx=0;exitDy=0;exitPerimeter=0;fontColor=default;" edge="1" parent="1" source="1za0sbIBUVwMTmuufQd1-124" target="1za0sbIBUVwMTmuufQd1-129">
          <mxGeometry relative="1" as="geometry" />
        </mxCell>
        <mxCell id="1za0sbIBUVwMTmuufQd1-123" value="no" style="edgeLabel;html=1;align=center;verticalAlign=middle;resizable=0;points=[];fontColor=default;" vertex="1" connectable="0" parent="1za0sbIBUVwMTmuufQd1-122">
          <mxGeometry x="0.1127" y="-1" relative="1" as="geometry">
            <mxPoint as="offset" />
          </mxGeometry>
        </mxCell>
        <mxCell id="1za0sbIBUVwMTmuufQd1-124" value="&lt;div style=&quot;&quot;&gt;&lt;pre style=&quot;font-family: &amp;quot;JetBrains Mono&amp;quot;, monospace;&quot;&gt;&lt;font style=&quot;&quot;&gt;first_set.is_like(fuzzy_set)&lt;/font&gt;&lt;/pre&gt;&lt;/div&gt;" style="strokeWidth=2;html=1;shape=mxgraph.flowchart.decision;whiteSpace=wrap;fontSize=14;labelBackgroundColor=none;fontColor=default;" vertex="1" parent="1">
          <mxGeometry x="1207.96" y="1870" width="305" height="100" as="geometry" />
        </mxCell>
        <mxCell id="1za0sbIBUVwMTmuufQd1-125" style="edgeStyle=orthogonalEdgeStyle;rounded=0;orthogonalLoop=1;jettySize=auto;html=1;exitX=0.5;exitY=1;exitDx=0;exitDy=0;fontColor=default;" edge="1" parent="1">
          <mxGeometry relative="1" as="geometry">
            <mxPoint x="1551.2450000000003" y="2035" as="sourcePoint" />
            <mxPoint x="1184" y="2050" as="targetPoint" />
            <Array as="points">
              <mxPoint x="1551" y="2050" />
            </Array>
          </mxGeometry>
        </mxCell>
        <mxCell id="1za0sbIBUVwMTmuufQd1-126" value="&lt;div style=&quot;&quot;&gt;&lt;pre style=&quot;font-family: &amp;quot;JetBrains Mono&amp;quot;, monospace;&quot;&gt;&lt;pre style=&quot;font-family: &amp;quot;JetBrains Mono&amp;quot;, monospace;&quot;&gt;&lt;pre style=&quot;font-family: &amp;quot;JetBrains Mono&amp;quot;, monospace;&quot;&gt;&lt;pre style=&quot;font-family: &amp;quot;JetBrains Mono&amp;quot;, monospace;&quot;&gt;&lt;pre style=&quot;font-family: &amp;quot;JetBrains Mono&amp;quot;, monospace;&quot;&gt;&lt;pre style=&quot;font-family: &amp;quot;JetBrains Mono&amp;quot;, monospace;&quot;&gt;&lt;pre style=&quot;font-family: &amp;quot;JetBrains Mono&amp;quot;, monospace;&quot;&gt;&lt;pre style=&quot;font-family: &amp;quot;JetBrains Mono&amp;quot;, monospace;&quot;&gt;&lt;pre style=&quot;font-family: &amp;quot;JetBrains Mono&amp;quot;, monospace;&quot;&gt;&lt;font style=&quot;&quot;&gt;result.append(fuzzy_set)&lt;/font&gt;&lt;/pre&gt;&lt;/pre&gt;&lt;/pre&gt;&lt;/pre&gt;&lt;/pre&gt;&lt;/pre&gt;&lt;/pre&gt;&lt;/pre&gt;&lt;/pre&gt;&lt;/div&gt;" style="rounded=0;whiteSpace=wrap;html=1;absoluteArcSize=1;arcSize=14;strokeWidth=2;fontSize=14;labelBackgroundColor=none;fontColor=default;" vertex="1" parent="1">
          <mxGeometry x="1438.72" y="1970" width="217.05" height="50" as="geometry" />
        </mxCell>
        <mxCell id="1za0sbIBUVwMTmuufQd1-128" style="edgeStyle=orthogonalEdgeStyle;rounded=0;orthogonalLoop=1;jettySize=auto;html=1;fontColor=default;exitX=0.5;exitY=1;exitDx=0;exitDy=0;" edge="1" parent="1" source="1za0sbIBUVwMTmuufQd1-129">
          <mxGeometry relative="1" as="geometry">
            <mxPoint x="1359.95" y="1585" as="targetPoint" />
            <mxPoint x="1189.9564516129033" y="1985" as="sourcePoint" />
            <Array as="points">
              <mxPoint x="1183" y="2160" />
              <mxPoint x="1060" y="2160" />
              <mxPoint x="1060" y="1585" />
            </Array>
          </mxGeometry>
        </mxCell>
        <mxCell id="1za0sbIBUVwMTmuufQd1-129" value="&lt;div style=&quot;&quot;&gt;&lt;pre style=&quot;font-family: &amp;quot;JetBrains Mono&amp;quot;, monospace;&quot;&gt;&lt;pre style=&quot;font-family: &amp;quot;JetBrains Mono&amp;quot;, monospace;&quot;&gt;&lt;pre style=&quot;font-family: &amp;quot;JetBrains Mono&amp;quot;, monospace;&quot;&gt;&lt;pre style=&quot;font-family: &amp;quot;JetBrains Mono&amp;quot;, monospace;&quot;&gt;&lt;pre style=&quot;font-family: &amp;quot;JetBrains Mono&amp;quot;, monospace;&quot;&gt;&lt;pre style=&quot;font-family: &amp;quot;JetBrains Mono&amp;quot;, monospace;&quot;&gt;&lt;pre style=&quot;font-family: &amp;quot;JetBrains Mono&amp;quot;, monospace;&quot;&gt;&lt;pre style=&quot;font-family: &amp;quot;JetBrains Mono&amp;quot;, monospace;&quot;&gt;&lt;pre style=&quot;font-family: &amp;quot;JetBrains Mono&amp;quot;, monospace;&quot;&gt;&lt;font style=&quot;&quot;&gt;i += 1&lt;/font&gt;&lt;/pre&gt;&lt;/pre&gt;&lt;/pre&gt;&lt;/pre&gt;&lt;/pre&gt;&lt;/pre&gt;&lt;/pre&gt;&lt;/pre&gt;&lt;/pre&gt;&lt;/div&gt;" style="rounded=0;whiteSpace=wrap;html=1;absoluteArcSize=1;arcSize=14;strokeWidth=2;fontSize=14;labelBackgroundColor=none;fontColor=default;" vertex="1" parent="1">
          <mxGeometry x="1102.95" y="2080" width="160" height="50" as="geometry" />
        </mxCell>
        <mxCell id="1za0sbIBUVwMTmuufQd1-130" style="edgeStyle=orthogonalEdgeStyle;rounded=0;orthogonalLoop=1;jettySize=auto;html=1;exitX=0.5;exitY=1;exitDx=0;exitDy=0;" edge="1" parent="1" source="1za0sbIBUVwMTmuufQd1-131" target="1za0sbIBUVwMTmuufQd1-124">
          <mxGeometry relative="1" as="geometry">
            <mxPoint x="1360.103448275862" y="1865" as="targetPoint" />
          </mxGeometry>
        </mxCell>
        <mxCell id="1za0sbIBUVwMTmuufQd1-131" value="&lt;div style=&quot;&quot;&gt;&lt;pre style=&quot;&quot;&gt;&lt;pre style=&quot;&quot;&gt;&lt;pre style=&quot;&quot;&gt;&lt;pre style=&quot;&quot;&gt;&lt;pre style=&quot;&quot;&gt;&lt;pre style=&quot;&quot;&gt;&lt;pre style=&quot;&quot;&gt;&lt;pre style=&quot;&quot;&gt;&lt;pre style=&quot;&quot;&gt;&lt;font style=&quot;&quot;&gt;&lt;font face=&quot;JetBrains Mono, monospace&quot;&gt;fuzzy_set &lt;/font&gt;&lt;font face=&quot;JetBrains Mono, monospace&quot; style=&quot;&quot;&gt;= &lt;/font&gt;self.inference_input.sets[i]&lt;/font&gt;&lt;font face=&quot;JetBrains Mono, monospace&quot;&gt;&lt;/font&gt;&lt;/pre&gt;&lt;/pre&gt;&lt;/pre&gt;&lt;/pre&gt;&lt;/pre&gt;&lt;/pre&gt;&lt;/pre&gt;&lt;/pre&gt;&lt;/pre&gt;&lt;/div&gt;" style="rounded=0;whiteSpace=wrap;html=1;absoluteArcSize=1;arcSize=14;strokeWidth=2;fontSize=14;labelBackgroundColor=none;fontColor=default;" vertex="1" parent="1">
          <mxGeometry x="1187.33" y="1765" width="346.24" height="70" as="geometry" />
        </mxCell>
        <mxCell id="1za0sbIBUVwMTmuufQd1-135" style="edgeStyle=orthogonalEdgeStyle;rounded=0;orthogonalLoop=1;jettySize=auto;html=1;exitX=0.5;exitY=1;exitDx=0;exitDy=0;entryX=0.5;entryY=0;entryDx=0;entryDy=0;" edge="1" parent="1" source="1za0sbIBUVwMTmuufQd1-134" target="1za0sbIBUVwMTmuufQd1-118">
          <mxGeometry relative="1" as="geometry" />
        </mxCell>
        <mxCell id="1za0sbIBUVwMTmuufQd1-134" value="&lt;div style=&quot;&quot;&gt;&lt;pre style=&quot;font-family: &amp;quot;JetBrains Mono&amp;quot;, monospace;&quot;&gt;&lt;pre style=&quot;font-family: &amp;quot;JetBrains Mono&amp;quot;, monospace;&quot;&gt;&lt;pre style=&quot;font-family: &amp;quot;JetBrains Mono&amp;quot;, monospace;&quot;&gt;&lt;pre style=&quot;font-family: &amp;quot;JetBrains Mono&amp;quot;, monospace;&quot;&gt;&lt;pre style=&quot;font-family: &amp;quot;JetBrains Mono&amp;quot;, monospace;&quot;&gt;&lt;pre style=&quot;font-family: &amp;quot;JetBrains Mono&amp;quot;, monospace;&quot;&gt;&lt;pre style=&quot;font-family: &amp;quot;JetBrains Mono&amp;quot;, monospace;&quot;&gt;&lt;pre style=&quot;font-family: &amp;quot;JetBrains Mono&amp;quot;, monospace;&quot;&gt;&lt;pre style=&quot;font-family: &amp;quot;JetBrains Mono&amp;quot;, monospace;&quot;&gt;&lt;font style=&quot;&quot;&gt;result = []&lt;/font&gt;&lt;/pre&gt;&lt;/pre&gt;&lt;/pre&gt;&lt;/pre&gt;&lt;/pre&gt;&lt;/pre&gt;&lt;/pre&gt;&lt;/pre&gt;&lt;/pre&gt;&lt;/div&gt;" style="rounded=0;whiteSpace=wrap;html=1;absoluteArcSize=1;arcSize=14;strokeWidth=2;fontSize=14;labelBackgroundColor=none;fontColor=default;" vertex="1" parent="1">
          <mxGeometry x="1286.03" y="1405" width="147.55" height="50" as="geometry" />
        </mxCell>
        <mxCell id="1za0sbIBUVwMTmuufQd1-140" style="edgeStyle=orthogonalEdgeStyle;rounded=0;orthogonalLoop=1;jettySize=auto;html=1;exitX=0.5;exitY=1;exitDx=0;exitDy=0;" edge="1" parent="1" source="1za0sbIBUVwMTmuufQd1-136" target="1za0sbIBUVwMTmuufQd1-139">
          <mxGeometry relative="1" as="geometry" />
        </mxCell>
        <mxCell id="1za0sbIBUVwMTmuufQd1-136" value="&lt;div style=&quot;&quot;&gt;&lt;pre style=&quot;font-family: &amp;quot;JetBrains Mono&amp;quot;, monospace;&quot;&gt;&lt;pre style=&quot;font-family: &amp;quot;JetBrains Mono&amp;quot;, monospace;&quot;&gt;&lt;pre style=&quot;font-family: &amp;quot;JetBrains Mono&amp;quot;, monospace;&quot;&gt;&lt;pre style=&quot;font-family: &amp;quot;JetBrains Mono&amp;quot;, monospace;&quot;&gt;&lt;pre style=&quot;font-family: &amp;quot;JetBrains Mono&amp;quot;, monospace;&quot;&gt;&lt;pre style=&quot;font-family: &amp;quot;JetBrains Mono&amp;quot;, monospace;&quot;&gt;&lt;pre style=&quot;font-family: &amp;quot;JetBrains Mono&amp;quot;, monospace;&quot;&gt;&lt;pre style=&quot;font-family: &amp;quot;JetBrains Mono&amp;quot;, monospace;&quot;&gt;&lt;pre style=&quot;font-family: &amp;quot;JetBrains Mono&amp;quot;, monospace;&quot;&gt;&lt;font style=&quot;&quot;&gt;return result&lt;/font&gt;&lt;/pre&gt;&lt;/pre&gt;&lt;/pre&gt;&lt;/pre&gt;&lt;/pre&gt;&lt;/pre&gt;&lt;/pre&gt;&lt;/pre&gt;&lt;/pre&gt;&lt;/div&gt;" style="rounded=0;whiteSpace=wrap;html=1;absoluteArcSize=1;arcSize=14;strokeWidth=2;fontSize=14;labelBackgroundColor=none;fontColor=default;" vertex="1" parent="1">
          <mxGeometry x="1588.28" y="1715" width="160" height="50" as="geometry" />
        </mxCell>
        <mxCell id="1za0sbIBUVwMTmuufQd1-139" value="&lt;font style=&quot;font-size: 16px;&quot;&gt;end&lt;/font&gt;" style="strokeWidth=2;html=1;shape=mxgraph.flowchart.terminator;whiteSpace=wrap;fontColor=default;" vertex="1" parent="1">
          <mxGeometry x="1610.78" y="1800" width="115" height="60" as="geometry" />
        </mxCell>
      </root>
    </mxGraphModel>
  </diagram>
</mxfile>
